<mxfile host="app.diagrams.net" agent="Mozilla/5.0 (Windows NT 10.0; Win64; x64) AppleWebKit/537.36 (KHTML, like Gecko) Chrome/132.0.0.0 Safari/537.36 Edg/132.0.0.0" version="26.0.6">
  <diagram name="Page-1" id="7DfMyEFB0xdMGXHzdRRX">
    <mxGraphModel dx="1042" dy="565" grid="1" gridSize="10" guides="1" tooltips="1" connect="1" arrows="1" fold="1" page="1" pageScale="1" pageWidth="850" pageHeight="1100" math="0" shadow="0">
      <root>
        <mxCell id="0" />
        <mxCell id="1" parent="0" />
        <mxCell id="hJn0PAiseajkrkv99Ouj-2" value="&lt;b&gt;EMPLOYEE&lt;/b&gt;" style="rounded=1;whiteSpace=wrap;html=1;fillColor=#ffe6cc;strokeColor=#d79b00;" vertex="1" parent="1">
          <mxGeometry x="160" y="150" width="120" height="40" as="geometry" />
        </mxCell>
        <mxCell id="hJn0PAiseajkrkv99Ouj-4" value="&lt;span&gt;&lt;b&gt;Works_in&lt;/b&gt;&lt;/span&gt;" style="rhombus;whiteSpace=wrap;html=1;fillColor=#dae8fc;strokeColor=#6c8ebf;" vertex="1" parent="1">
          <mxGeometry x="405" y="40" width="110" height="80" as="geometry" />
        </mxCell>
        <mxCell id="hJn0PAiseajkrkv99Ouj-5" value="&lt;b&gt;Works_on&amp;nbsp;&lt;/b&gt;&lt;div&gt;&lt;b&gt;Hours&lt;/b&gt;&lt;/div&gt;" style="rhombus;whiteSpace=wrap;html=1;fillColor=#dae8fc;strokeColor=#6c8ebf;" vertex="1" parent="1">
          <mxGeometry x="410" y="280" width="100" height="80" as="geometry" />
        </mxCell>
        <mxCell id="hJn0PAiseajkrkv99Ouj-6" value="&lt;b&gt;Department_of&lt;/b&gt;" style="rhombus;whiteSpace=wrap;html=1;fillColor=#dae8fc;strokeColor=#6c8ebf;" vertex="1" parent="1">
          <mxGeometry x="405" y="400" width="110" height="80" as="geometry" />
        </mxCell>
        <mxCell id="hJn0PAiseajkrkv99Ouj-7" value="&lt;b&gt;Manager&lt;/b&gt;" style="rhombus;whiteSpace=wrap;html=1;fillColor=#dae8fc;strokeColor=#6c8ebf;" vertex="1" parent="1">
          <mxGeometry x="410" y="160" width="100" height="80" as="geometry" />
        </mxCell>
        <mxCell id="hJn0PAiseajkrkv99Ouj-8" value="" style="endArrow=none;html=1;rounded=0;entryX=0.5;entryY=0;entryDx=0;entryDy=0;" edge="1" parent="1" target="hJn0PAiseajkrkv99Ouj-7">
          <mxGeometry width="50" height="50" relative="1" as="geometry">
            <mxPoint x="430" y="160" as="sourcePoint" />
            <mxPoint x="440" y="130" as="targetPoint" />
            <Array as="points">
              <mxPoint x="430" y="160" />
            </Array>
          </mxGeometry>
        </mxCell>
        <mxCell id="hJn0PAiseajkrkv99Ouj-9" value="&lt;b&gt;Since&lt;/b&gt;" style="ellipse;whiteSpace=wrap;html=1;fillColor=#d5e8d4;strokeColor=#82b366;" vertex="1" parent="1">
          <mxGeometry x="370" y="150" width="60" height="30" as="geometry" />
        </mxCell>
        <mxCell id="hJn0PAiseajkrkv99Ouj-10" value="&lt;b&gt;Gender&lt;/b&gt;" style="ellipse;whiteSpace=wrap;html=1;fillColor=#e1d5e7;strokeColor=#9673a6;" vertex="1" parent="1">
          <mxGeometry x="20" y="280" width="80" height="50" as="geometry" />
        </mxCell>
        <mxCell id="hJn0PAiseajkrkv99Ouj-11" value="&lt;b&gt;ID&lt;/b&gt;" style="ellipse;whiteSpace=wrap;html=1;fillColor=#e1d5e7;strokeColor=#9673a6;" vertex="1" parent="1">
          <mxGeometry x="20" y="200" width="80" height="50" as="geometry" />
        </mxCell>
        <mxCell id="hJn0PAiseajkrkv99Ouj-12" value="&lt;b&gt;Name&lt;/b&gt;" style="ellipse;whiteSpace=wrap;html=1;fillColor=#e1d5e7;strokeColor=#9673a6;" vertex="1" parent="1">
          <mxGeometry x="30" y="120" width="70" height="60" as="geometry" />
        </mxCell>
        <mxCell id="hJn0PAiseajkrkv99Ouj-13" value="&lt;b&gt;Address&lt;/b&gt;" style="ellipse;whiteSpace=wrap;html=1;fillColor=#e1d5e7;strokeColor=#9673a6;" vertex="1" parent="1">
          <mxGeometry x="70" y="60" width="70" height="50" as="geometry" />
        </mxCell>
        <mxCell id="hJn0PAiseajkrkv99Ouj-14" value="&lt;b&gt;Dob&lt;/b&gt;" style="ellipse;whiteSpace=wrap;html=1;fillColor=#e1d5e7;strokeColor=#9673a6;" vertex="1" parent="1">
          <mxGeometry x="150" y="20" width="70" height="50" as="geometry" />
        </mxCell>
        <mxCell id="hJn0PAiseajkrkv99Ouj-15" value="&lt;b&gt;Doj&lt;/b&gt;" style="ellipse;whiteSpace=wrap;html=1;fillColor=#e1d5e7;strokeColor=#9673a6;" vertex="1" parent="1">
          <mxGeometry x="250" y="20" width="70" height="50" as="geometry" />
        </mxCell>
        <mxCell id="hJn0PAiseajkrkv99Ouj-16" value="" style="endArrow=none;html=1;rounded=0;entryX=0.286;entryY=1;entryDx=0;entryDy=0;entryPerimeter=0;" edge="1" parent="1" target="hJn0PAiseajkrkv99Ouj-15">
          <mxGeometry width="50" height="50" relative="1" as="geometry">
            <mxPoint x="220" y="150" as="sourcePoint" />
            <mxPoint x="270" y="100" as="targetPoint" />
          </mxGeometry>
        </mxCell>
        <mxCell id="hJn0PAiseajkrkv99Ouj-17" value="" style="endArrow=none;html=1;rounded=0;entryX=0.5;entryY=1;entryDx=0;entryDy=0;" edge="1" parent="1" target="hJn0PAiseajkrkv99Ouj-14">
          <mxGeometry width="50" height="50" relative="1" as="geometry">
            <mxPoint x="190" y="150" as="sourcePoint" />
            <mxPoint x="240" y="70" as="targetPoint" />
          </mxGeometry>
        </mxCell>
        <mxCell id="hJn0PAiseajkrkv99Ouj-18" value="" style="endArrow=none;html=1;rounded=0;entryX=1;entryY=0.8;entryDx=0;entryDy=0;entryPerimeter=0;" edge="1" parent="1" target="hJn0PAiseajkrkv99Ouj-13">
          <mxGeometry width="50" height="50" relative="1" as="geometry">
            <mxPoint x="175" y="150" as="sourcePoint" />
            <mxPoint x="170" y="70" as="targetPoint" />
          </mxGeometry>
        </mxCell>
        <mxCell id="hJn0PAiseajkrkv99Ouj-19" value="" style="endArrow=none;html=1;rounded=0;entryX=1;entryY=0.8;entryDx=0;entryDy=0;entryPerimeter=0;" edge="1" parent="1">
          <mxGeometry width="50" height="50" relative="1" as="geometry">
            <mxPoint x="200" y="190" as="sourcePoint" />
            <mxPoint x="100" y="300" as="targetPoint" />
          </mxGeometry>
        </mxCell>
        <mxCell id="hJn0PAiseajkrkv99Ouj-20" value="" style="endArrow=none;html=1;rounded=0;entryX=1;entryY=0.8;entryDx=0;entryDy=0;entryPerimeter=0;" edge="1" parent="1">
          <mxGeometry width="50" height="50" relative="1" as="geometry">
            <mxPoint x="160" y="160" as="sourcePoint" />
            <mxPoint x="100" y="220" as="targetPoint" />
            <Array as="points">
              <mxPoint x="160" y="160" />
            </Array>
          </mxGeometry>
        </mxCell>
        <mxCell id="hJn0PAiseajkrkv99Ouj-21" value="" style="endArrow=none;html=1;rounded=0;entryX=1;entryY=0.8;entryDx=0;entryDy=0;entryPerimeter=0;" edge="1" parent="1">
          <mxGeometry width="50" height="50" relative="1" as="geometry">
            <mxPoint x="160" y="150" as="sourcePoint" />
            <mxPoint x="100" y="150" as="targetPoint" />
          </mxGeometry>
        </mxCell>
        <mxCell id="hJn0PAiseajkrkv99Ouj-22" value="" style="endArrow=none;html=1;rounded=0;entryX=0;entryY=0.5;entryDx=0;entryDy=0;" edge="1" parent="1" target="hJn0PAiseajkrkv99Ouj-4">
          <mxGeometry width="50" height="50" relative="1" as="geometry">
            <mxPoint x="280" y="150" as="sourcePoint" />
            <mxPoint x="330" y="70" as="targetPoint" />
          </mxGeometry>
        </mxCell>
        <mxCell id="hJn0PAiseajkrkv99Ouj-23" value="" style="endArrow=none;html=1;rounded=0;entryX=0;entryY=0.5;entryDx=0;entryDy=0;" edge="1" parent="1" target="hJn0PAiseajkrkv99Ouj-7">
          <mxGeometry width="50" height="50" relative="1" as="geometry">
            <mxPoint x="280" y="190" as="sourcePoint" />
            <mxPoint x="405" y="200" as="targetPoint" />
          </mxGeometry>
        </mxCell>
        <mxCell id="hJn0PAiseajkrkv99Ouj-24" value="" style="endArrow=none;html=1;rounded=0;entryX=0;entryY=0.5;entryDx=0;entryDy=0;" edge="1" parent="1" target="hJn0PAiseajkrkv99Ouj-5">
          <mxGeometry width="50" height="50" relative="1" as="geometry">
            <mxPoint x="240" y="190" as="sourcePoint" />
            <mxPoint x="370" y="200" as="targetPoint" />
          </mxGeometry>
        </mxCell>
        <mxCell id="hJn0PAiseajkrkv99Ouj-25" value="" style="endArrow=none;html=1;rounded=0;entryX=0;entryY=0.5;entryDx=0;entryDy=0;" edge="1" parent="1" target="hJn0PAiseajkrkv99Ouj-6">
          <mxGeometry width="50" height="50" relative="1" as="geometry">
            <mxPoint x="220" y="190" as="sourcePoint" />
            <mxPoint x="390" y="320" as="targetPoint" />
          </mxGeometry>
        </mxCell>
        <mxCell id="hJn0PAiseajkrkv99Ouj-26" value="&lt;b&gt;Department&lt;/b&gt;" style="rounded=1;whiteSpace=wrap;html=1;fillColor=#fff2cc;strokeColor=#d6b656;" vertex="1" parent="1">
          <mxGeometry x="630" y="110" width="130" height="40" as="geometry" />
        </mxCell>
        <mxCell id="hJn0PAiseajkrkv99Ouj-27" value="&lt;b&gt;Project&lt;/b&gt;" style="rounded=1;whiteSpace=wrap;html=1;fillColor=#fff2cc;strokeColor=#d6b656;" vertex="1" parent="1">
          <mxGeometry x="630" y="285" width="130" height="40" as="geometry" />
        </mxCell>
        <mxCell id="hJn0PAiseajkrkv99Ouj-28" value="&lt;b&gt;Dependent&lt;/b&gt;" style="rounded=1;whiteSpace=wrap;html=1;fillColor=#fff2cc;strokeColor=#d6b656;" vertex="1" parent="1">
          <mxGeometry x="640" y="430" width="130" height="40" as="geometry" />
        </mxCell>
        <mxCell id="hJn0PAiseajkrkv99Ouj-29" value="&lt;span&gt;&lt;b&gt;Has&lt;/b&gt;&lt;/span&gt;" style="rhombus;whiteSpace=wrap;html=1;fillColor=#dae8fc;strokeColor=#6c8ebf;" vertex="1" parent="1">
          <mxGeometry x="655" y="190" width="80" height="60" as="geometry" />
        </mxCell>
        <mxCell id="hJn0PAiseajkrkv99Ouj-30" value="" style="endArrow=none;html=1;rounded=0;exitX=0.5;exitY=0;exitDx=0;exitDy=0;entryX=0.5;entryY=1;entryDx=0;entryDy=0;" edge="1" parent="1" source="hJn0PAiseajkrkv99Ouj-29" target="hJn0PAiseajkrkv99Ouj-26">
          <mxGeometry width="50" height="50" relative="1" as="geometry">
            <mxPoint x="650" y="200" as="sourcePoint" />
            <mxPoint x="700" y="150" as="targetPoint" />
          </mxGeometry>
        </mxCell>
        <mxCell id="hJn0PAiseajkrkv99Ouj-31" value="" style="endArrow=none;html=1;rounded=0;entryX=0.5;entryY=1;entryDx=0;entryDy=0;" edge="1" parent="1">
          <mxGeometry width="50" height="50" relative="1" as="geometry">
            <mxPoint x="695" y="280" as="sourcePoint" />
            <mxPoint x="694.5" y="250" as="targetPoint" />
          </mxGeometry>
        </mxCell>
        <mxCell id="hJn0PAiseajkrkv99Ouj-33" value="&lt;b&gt;D_No&lt;/b&gt;" style="ellipse;whiteSpace=wrap;html=1;fillColor=#e1d5e7;strokeColor=#9673a6;" vertex="1" parent="1">
          <mxGeometry x="560" y="20" width="70" height="50" as="geometry" />
        </mxCell>
        <mxCell id="hJn0PAiseajkrkv99Ouj-34" value="&lt;b&gt;NAme&lt;/b&gt;" style="ellipse;whiteSpace=wrap;html=1;fillColor=#e1d5e7;strokeColor=#9673a6;" vertex="1" parent="1">
          <mxGeometry x="665" y="20" width="70" height="50" as="geometry" />
        </mxCell>
        <mxCell id="hJn0PAiseajkrkv99Ouj-35" value="&lt;b&gt;Location&lt;/b&gt;" style="ellipse;whiteSpace=wrap;html=1;fillColor=#e1d5e7;strokeColor=#9673a6;" vertex="1" parent="1">
          <mxGeometry x="760" y="40" width="70" height="50" as="geometry" />
        </mxCell>
        <mxCell id="hJn0PAiseajkrkv99Ouj-36" value="&lt;b&gt;P_No&lt;/b&gt;" style="ellipse;whiteSpace=wrap;html=1;fillColor=#e1d5e7;strokeColor=#9673a6;" vertex="1" parent="1">
          <mxGeometry x="770" y="220" width="50" height="40" as="geometry" />
        </mxCell>
        <mxCell id="hJn0PAiseajkrkv99Ouj-37" value="&lt;b&gt;Name&lt;/b&gt;" style="ellipse;whiteSpace=wrap;html=1;fillColor=#e1d5e7;strokeColor=#9673a6;" vertex="1" parent="1">
          <mxGeometry x="780" y="285" width="60" height="35" as="geometry" />
        </mxCell>
        <mxCell id="hJn0PAiseajkrkv99Ouj-38" value="&lt;b&gt;Location&lt;/b&gt;" style="ellipse;whiteSpace=wrap;html=1;fillColor=#e1d5e7;strokeColor=#9673a6;" vertex="1" parent="1">
          <mxGeometry x="760" y="330" width="60" height="35" as="geometry" />
        </mxCell>
        <mxCell id="hJn0PAiseajkrkv99Ouj-39" value="&lt;b&gt;Relationship&lt;/b&gt;" style="ellipse;whiteSpace=wrap;html=1;fillColor=#e1d5e7;strokeColor=#9673a6;" vertex="1" parent="1">
          <mxGeometry x="800" y="500" width="90" height="50" as="geometry" />
        </mxCell>
        <mxCell id="hJn0PAiseajkrkv99Ouj-40" value="&lt;b&gt;Gender&lt;/b&gt;" style="ellipse;whiteSpace=wrap;html=1;fillColor=#e1d5e7;strokeColor=#9673a6;" vertex="1" parent="1">
          <mxGeometry x="677.5" y="500" width="62.5" height="50" as="geometry" />
        </mxCell>
        <mxCell id="hJn0PAiseajkrkv99Ouj-41" value="&lt;b&gt;D_name&lt;/b&gt;" style="ellipse;whiteSpace=wrap;html=1;fillColor=#e1d5e7;strokeColor=#9673a6;" vertex="1" parent="1">
          <mxGeometry x="592.5" y="500" width="62.5" height="50" as="geometry" />
        </mxCell>
        <mxCell id="hJn0PAiseajkrkv99Ouj-42" value="" style="endArrow=none;html=1;rounded=0;entryX=0.357;entryY=0.952;entryDx=0;entryDy=0;entryPerimeter=0;" edge="1" parent="1" target="hJn0PAiseajkrkv99Ouj-34">
          <mxGeometry width="50" height="50" relative="1" as="geometry">
            <mxPoint x="655" y="110" as="sourcePoint" />
            <mxPoint x="705" y="60" as="targetPoint" />
          </mxGeometry>
        </mxCell>
        <mxCell id="hJn0PAiseajkrkv99Ouj-43" value="" style="endArrow=none;html=1;rounded=0;entryX=0.357;entryY=0.952;entryDx=0;entryDy=0;entryPerimeter=0;" edge="1" parent="1">
          <mxGeometry width="50" height="50" relative="1" as="geometry">
            <mxPoint x="725" y="110" as="sourcePoint" />
            <mxPoint x="760" y="68" as="targetPoint" />
          </mxGeometry>
        </mxCell>
        <mxCell id="hJn0PAiseajkrkv99Ouj-44" value="" style="endArrow=none;html=1;rounded=0;" edge="1" parent="1" target="hJn0PAiseajkrkv99Ouj-33">
          <mxGeometry width="50" height="50" relative="1" as="geometry">
            <mxPoint x="630" y="112" as="sourcePoint" />
            <mxPoint x="665" y="70" as="targetPoint" />
          </mxGeometry>
        </mxCell>
        <mxCell id="hJn0PAiseajkrkv99Ouj-45" value="" style="endArrow=none;html=1;rounded=0;exitX=0;exitY=0.5;exitDx=0;exitDy=0;entryX=0.665;entryY=0.005;entryDx=0;entryDy=0;entryPerimeter=0;" edge="1" parent="1" source="hJn0PAiseajkrkv99Ouj-36" target="hJn0PAiseajkrkv99Ouj-27">
          <mxGeometry width="50" height="50" relative="1" as="geometry">
            <mxPoint x="758" y="260" as="sourcePoint" />
            <mxPoint x="735" y="220" as="targetPoint" />
          </mxGeometry>
        </mxCell>
        <mxCell id="hJn0PAiseajkrkv99Ouj-47" value="" style="endArrow=none;html=1;rounded=0;entryX=0;entryY=0.5;entryDx=0;entryDy=0;" edge="1" parent="1" target="hJn0PAiseajkrkv99Ouj-37">
          <mxGeometry width="50" height="50" relative="1" as="geometry">
            <mxPoint x="760" y="302" as="sourcePoint" />
            <mxPoint x="795" y="260" as="targetPoint" />
          </mxGeometry>
        </mxCell>
        <mxCell id="hJn0PAiseajkrkv99Ouj-48" value="" style="endArrow=none;html=1;rounded=0;entryX=0;entryY=0.5;entryDx=0;entryDy=0;" edge="1" parent="1" target="hJn0PAiseajkrkv99Ouj-38">
          <mxGeometry width="50" height="50" relative="1" as="geometry">
            <mxPoint x="705" y="327" as="sourcePoint" />
            <mxPoint x="740" y="285" as="targetPoint" />
          </mxGeometry>
        </mxCell>
        <mxCell id="hJn0PAiseajkrkv99Ouj-49" value="" style="endArrow=none;html=1;rounded=0;entryX=0;entryY=0;entryDx=0;entryDy=0;" edge="1" parent="1" target="hJn0PAiseajkrkv99Ouj-39">
          <mxGeometry width="50" height="50" relative="1" as="geometry">
            <mxPoint x="770" y="470" as="sourcePoint" />
            <mxPoint x="805" y="428" as="targetPoint" />
          </mxGeometry>
        </mxCell>
        <mxCell id="hJn0PAiseajkrkv99Ouj-50" value="" style="endArrow=none;html=1;rounded=0;entryX=0.5;entryY=0;entryDx=0;entryDy=0;" edge="1" parent="1" target="hJn0PAiseajkrkv99Ouj-40">
          <mxGeometry width="50" height="50" relative="1" as="geometry">
            <mxPoint x="692" y="470" as="sourcePoint" />
            <mxPoint x="735" y="507" as="targetPoint" />
          </mxGeometry>
        </mxCell>
        <mxCell id="hJn0PAiseajkrkv99Ouj-51" value="" style="endArrow=none;html=1;rounded=0;entryX=0.5;entryY=0;entryDx=0;entryDy=0;" edge="1" parent="1" target="hJn0PAiseajkrkv99Ouj-41">
          <mxGeometry width="50" height="50" relative="1" as="geometry">
            <mxPoint x="640" y="470" as="sourcePoint" />
            <mxPoint x="683" y="507" as="targetPoint" />
          </mxGeometry>
        </mxCell>
        <mxCell id="hJn0PAiseajkrkv99Ouj-52" value="" style="endArrow=none;html=1;rounded=0;exitX=0;exitY=0.5;exitDx=0;exitDy=0;" edge="1" parent="1" source="hJn0PAiseajkrkv99Ouj-26">
          <mxGeometry width="50" height="50" relative="1" as="geometry">
            <mxPoint x="538" y="120" as="sourcePoint" />
            <mxPoint x="515" y="80" as="targetPoint" />
          </mxGeometry>
        </mxCell>
        <mxCell id="hJn0PAiseajkrkv99Ouj-53" value="" style="endArrow=none;html=1;rounded=0;exitX=0;exitY=1;exitDx=0;exitDy=0;" edge="1" parent="1" source="hJn0PAiseajkrkv99Ouj-26">
          <mxGeometry width="50" height="50" relative="1" as="geometry">
            <mxPoint x="625" y="250" as="sourcePoint" />
            <mxPoint x="510" y="200" as="targetPoint" />
          </mxGeometry>
        </mxCell>
        <mxCell id="hJn0PAiseajkrkv99Ouj-54" value="" style="endArrow=none;html=1;rounded=0;exitX=0;exitY=0.75;exitDx=0;exitDy=0;" edge="1" parent="1" source="hJn0PAiseajkrkv99Ouj-27">
          <mxGeometry width="50" height="50" relative="1" as="geometry">
            <mxPoint x="630" y="270" as="sourcePoint" />
            <mxPoint x="510" y="320" as="targetPoint" />
          </mxGeometry>
        </mxCell>
        <mxCell id="hJn0PAiseajkrkv99Ouj-55" value="" style="endArrow=none;html=1;rounded=0;exitX=0;exitY=0.25;exitDx=0;exitDy=0;" edge="1" parent="1" source="hJn0PAiseajkrkv99Ouj-28">
          <mxGeometry width="50" height="50" relative="1" as="geometry">
            <mxPoint x="635" y="437.5" as="sourcePoint" />
            <mxPoint x="515" y="442.5" as="targetPoint" />
          </mxGeometry>
        </mxCell>
        <mxCell id="hJn0PAiseajkrkv99Ouj-56" value="" style="endArrow=none;html=1;rounded=0;exitX=0;exitY=0.5;exitDx=0;exitDy=0;" edge="1" parent="1" source="hJn0PAiseajkrkv99Ouj-28">
          <mxGeometry width="50" height="50" relative="1" as="geometry">
            <mxPoint x="625" y="448.75" as="sourcePoint" />
            <mxPoint x="500" y="451.25" as="targetPoint" />
          </mxGeometry>
        </mxCell>
        <mxCell id="hJn0PAiseajkrkv99Ouj-57" value="&lt;b&gt;ER DIAGRAM OF A COMPANY&lt;/b&gt;" style="rounded=1;whiteSpace=wrap;html=1;fillColor=#e3c800;strokeColor=#B09500;shadow=1;glass=1;fontColor=#000000;" vertex="1" parent="1">
          <mxGeometry x="100" y="530" width="470" height="50" as="geometry" />
        </mxCell>
      </root>
    </mxGraphModel>
  </diagram>
</mxfile>
